<?xml version="1.0" encoding="UTF-8"?>
<svg width="16px" height="16px" viewBox="0 0 16 16" version="1.1" xmlns="http://www.w3.org/2000/svg" xmlns:xlink="http://www.w3.org/1999/xlink">
    <title>copyleft</title>
    <desc>icon by jm3.</desc>
    <g id="copyleft" stroke="none" stroke-width="1" fill="none" fill-rule="evenodd">
    <path d="M7.97824,15.9944533 C3.56095996,15.9944533 0.122879936,12.4475733 0.122879936,8.16085327 L0.122879936,8.11733327 C0.122879936,3.83061324 3.60447996,0.240213207 8.02176,0.240213207 C12.43904,0.240213207 15.8771201,3.78709324 15.8771201,8.07381327 L15.8771201,8.11733327 C15.8771201,12.4040533 12.39552,15.9944533 7.97824,15.9944533 Z M7.97824,15.1240533 C11.96032,15.1240533 14.9632001,11.9688533 14.9632001,8.11733327 L14.9632001,8.07381327 C14.9632001,4.22229324 11.98208,1.11061321 8.02176,1.11061321 C4.03967997,1.11061321 1.03679994,4.26581324 1.03679994,8.11733327 L1.03679994,8.16085327 C1.03679994,12.0123733 4.01791997,15.1240533 7.97824,15.1240533 Z M8.08704,12.3387733 C5.62815998,12.3387733 3.80031997,10.4456533 3.80031997,8.05205327 L3.80031997,8.00853327 C3.80031997,5.63669325 5.58463998,3.67829323 8.15232,3.67829323 C9.74080001,3.67829323 10.67648,4.20053324 11.45984,4.96213325 L10.26304,6.35477326 C9.63200001,5.78901325 8.95744001,5.41909325 8.15232,5.41909325 C6.75967999,5.41909325 5.75871998,6.57237326 5.75871998,7.98677327 L5.75871998,8.03029327 C5.75871998,9.42293328 6.73791999,10.5979733 8.15232,10.5979733 C9.08800001,10.5979733 9.65376001,10.2062933 10.30656,9.61877328 L11.52512,10.8373333 C10.65472,11.7730133 9.69728001,12.3387733 8.08704,12.3387733 Z" id="©" fill="#95ffeb" fill-rule="nonzero" transform="translate(8.000000, 8.117333) scale(-1, 1) translate(-8.000000, -8.117333) "></path>
    </g>
</svg>
